<?xml version="1.0" standalone="no"?>
<!DOCTYPE svg PUBLIC "-//W3C//DTD SVG 20010904//EN"
 "http://www.w3.org/TR/2001/REC-SVG-20010904/DTD/svg10.dtd">
<svg version="1.0" xmlns="http://www.w3.org/2000/svg"
 width="203.000000pt" height="45.000000pt" viewBox="0 0 203.000000 45.000000"
 preserveAspectRatio="xMidYMid meet">

<g transform="translate(0.000000,45.000000) scale(0.100000,-0.100000)"
fill="#000000" stroke="none">
<path d="M290 420 c0 -5 7 -10 16 -10 8 0 12 5 9 10 -3 6 -10 10 -16 10 -5 0
-9 -4 -9 -10z"/>
<path d="M10 378 c0 -23 139 -335 157 -354 8 -8 20 -14 26 -14 9 0 9 2 0 8 -7
4 -37 62 -67 128 -94 206 -115 250 -116 232z"/>
<path d="M323 375 c-10 -11 0 -14 52 -17 36 -1 65 0 65 5 0 4 -22 7 -49 7 -27
0 -51 4 -53 9 -1 5 -8 3 -15 -4z"/>
<path d="M470 359 c0 -5 9 -9 19 -9 11 0 22 -3 25 -8 2 -4 10 -63 17 -131 l12
-123 36 7 c20 4 38 8 40 10 3 4 -36 245 -41 251 -8 8 -108 11 -108 3z"/>
<path d="M1420 240 c0 -22 5 -40 10 -40 6 0 10 18 10 40 0 22 -4 40 -10 40 -5
0 -10 -18 -10 -40z"/>
<path d="M1290 260 c0 -6 7 -13 15 -17 24 -9 27 1 5 15 -13 8 -20 8 -20 2z"/>
<path d="M1488 253 c6 -2 12 -16 12 -29 0 -13 5 -24 10 -24 16 0 11 47 -6 54
-9 3 -19 6 -22 5 -4 0 -1 -3 6 -6z"/>
<path d="M1698 254 c-11 -10 -10 -84 1 -84 5 0 11 8 13 18 6 24 -5 75 -14 66z"/>
<path d="M1552 237 c-9 -11 -10 -17 -2 -22 15 -9 23 -1 18 21 -3 15 -4 16 -16
1z"/>
<path d="M1650 230 c0 -13 5 -20 13 -17 6 2 12 10 12 17 0 7 -6 15 -12 18 -8
2 -13 -5 -13 -18z"/>
<path d="M1783 231 c1 -15 4 -17 14 -9 7 5 10 14 7 19 -10 16 -23 9 -21 -10z"/>
<path d="M1365 224 c9 -9 18 -14 21 -11 9 9 -6 27 -22 27 -13 0 -13 -2 1 -16z"/>
<path d="M437 76 c-10 -8 -47 -20 -83 -27 -35 -7 -64 -16 -64 -19 0 -6 122 13
163 26 9 3 17 12 17 20 0 17 -10 17 -33 0z"/>
</g>
</svg>
