<svg width="14" height="13" viewBox="0 0 14 13" fill="none" xmlns="http://www.w3.org/2000/svg">
<path d="M13.3749 11.0484L12.3333 1.24845C12.3333 0.632331 11.856 0.133301 11.2666 0.133301H6.99998H2.73331C2.14398 0.133301 1.66664 0.632331 1.66664 1.24845L0.625042 11.0484C0.609576 11.1248 0.599976 11.2034 0.599976 11.2848C0.599976 11.9009 1.07731 12.4 1.66664 12.4H6.99998H12.3333C12.9226 12.4 13.4 11.9009 13.4 11.2848C13.4 11.2034 13.3904 11.1248 13.3749 11.0484ZM9.66664 2.86988V3.47876C9.66664 5.01599 8.47038 6.26663 6.99998 6.26663C5.52958 6.26663 4.33331 5.01599 4.33331 3.47876V2.86988C4.02344 2.75502 3.79998 2.44836 3.79998 2.08482C3.79998 1.62314 4.15838 1.24845 4.59998 1.24845C5.04158 1.24845 5.39998 1.62314 5.39998 2.08482V3.47876C5.39998 4.40099 6.11784 5.15148 6.99998 5.15148C7.88211 5.15148 8.59998 4.40099 8.59998 3.47876V2.08482C8.59998 1.62314 8.95837 1.24845 9.39997 1.24845C9.84157 1.24845 10.2 1.62314 10.2 2.08482C10.2 2.44836 9.97651 2.75502 9.66664 2.86988Z" fill="#F9F9F9"/>
</svg>
